<?xml version="1.0" encoding="UTF-8" standalone="no"?>
<!DOCTYPE svg PUBLIC "-//W3C//DTD SVG 1.1//EN" "http://www.w3.org/Graphics/SVG/1.1/DTD/svg11.dtd">
<svg width="100%" height="100%" viewBox="0 0 300 260" version="1.1" xmlns="http://www.w3.org/2000/svg" xmlns:xlink="http://www.w3.org/1999/xlink" xml:space="preserve" xmlns:serif="http://www.serif.com/" style="fill-rule:evenodd;clip-rule:evenodd;stroke-linejoin:round;stroke-miterlimit:2;">
    <g transform="matrix(0.79552,0,0,0.79552,-0.795202,-0.795727)">
        <path d="M282.622,13.981C322.222,26.281 362.522,54.181 374.222,91.181C386.022,128.181 369.222,174.181 347.322,211.481C325.422,248.781 298.422,277.281 267.222,296.681C235.922,315.981 200.522,326.181 164.422,326.981C128.422,327.781 91.722,319.281 71.922,296.181C52.122,273.081 49.122,235.581 36.522,200.281C23.922,165.081 1.722,132.081 1.022,97.381C0.222,62.581 20.922,26.081 51.822,10.881C82.722,-4.219 123.922,2.081 163.922,3.581C204.022,5.081 243.022,1.681 282.622,13.981" style="fill-rule:nonzero;"/>
    </g>
</svg>
